<svg width="258" height="47" viewBox="0 0 258 47" fill="none" xmlns="http://www.w3.org/2000/svg">
<mask id="path-1-inside-1_2113_105" fill="white">
<path fill-rule="evenodd" clip-rule="evenodd" d="M7.8895 2.62994H15.7788V0H243.109V2.6296H250.999V0H250.999V5.2592L256.259 5.25913V13.1484H258V34.187H256.259V42.0763L258 42.0764H250.999V47H250.999V44.706H243.109V47H15.7788V44.706H7.8895V47H7.88937V42.0764H6.86646e-05V47H0V42.0763H2.62954V34.187H0V13.149H2.62954V5.25966H0V0H6.86646e-05V5.25953H7.88937V0H7.8895V2.62994Z"/>
</mask>
<path d="M15.7788 2.62994V5.62994H18.7788V2.62994H15.7788ZM7.8895 2.62994H4.8895V5.62994H7.8895V2.62994ZM15.7788 0V-3H12.7788V0H15.7788ZM243.109 0H246.109V-3H243.109V0ZM243.109 2.6296H240.109V5.6296H243.109V2.6296ZM250.999 2.6296V5.6296H253.999V2.6296H250.999ZM250.999 0V-3H247.999V0H250.999ZM250.999 0H253.999V-3H250.999V0ZM250.999 5.2592H247.999V8.25923L250.999 8.2592L250.999 5.2592ZM256.259 5.25913H259.259V2.2591L256.259 2.25913L256.259 5.25913ZM256.259 13.1484H253.259V16.1484H256.259V13.1484ZM258 13.1484H261V10.1484H258V13.1484ZM258 34.187V37.187H261V34.187H258ZM256.259 34.187V31.187H253.259V34.187H256.259ZM256.259 42.0763H253.259V45.0761L256.258 45.0763L256.259 42.0763ZM258 42.0764V45.0764L258 39.0764L258 42.0764ZM250.999 42.0764V39.0764H247.999V42.0764H250.999ZM250.999 47V50H253.999V47H250.999ZM250.999 47H247.999V50H250.999V47ZM250.999 44.706H253.999V41.706H250.999V44.706ZM243.109 44.706V41.706H240.109V44.706H243.109ZM243.109 47V50H246.109V47H243.109ZM15.7788 47H12.7788V50H15.7788V47ZM15.7788 44.706H18.7788V41.706H15.7788V44.706ZM7.8895 44.706V41.706H4.8895V44.706H7.8895ZM7.8895 47V50H10.8895V47H7.8895ZM7.88937 47H4.88937V50H7.88937V47ZM7.88937 42.0764H10.8894V39.0764H7.88937V42.0764ZM6.86646e-05 42.0764V39.0764H-2.99993V42.0764H6.86646e-05ZM6.86646e-05 47V50H3.00007V47H6.86646e-05ZM0 47H-3V50H0V47ZM0 42.0763V39.0763H-3V42.0763H0ZM2.62954 42.0763V45.0763H5.62954V42.0763H2.62954ZM2.62954 34.187H5.62954V31.187H2.62954V34.187ZM0 34.187H-3V37.187H0V34.187ZM0 13.149V10.149H-3V13.149H0ZM2.62954 13.149V16.149H5.62954V13.149H2.62954ZM2.62954 5.25966H5.62954V2.25966H2.62954V5.25966ZM0 5.25966H-3V8.25966H0V5.25966ZM0 0V-3H-3V0H0ZM6.86646e-05 0H3.00007V-3H6.86646e-05V0ZM6.86646e-05 5.25953H-2.99993V8.25953H6.86646e-05V5.25953ZM7.88937 5.25953V8.25953H10.8894V5.25953H7.88937ZM7.88937 0V-3H4.88937V0H7.88937ZM7.8895 0H10.8895V-3H7.8895V0ZM15.7788 -0.370065H7.8895V5.62994H15.7788V-0.370065ZM12.7788 0V2.62994H18.7788V0H12.7788ZM243.109 -3H15.7788V3H243.109V-3ZM246.109 2.6296V0H240.109V2.6296H246.109ZM250.999 -0.370402H243.109V5.6296H250.999V-0.370402ZM247.999 0V2.6296H253.999V0H247.999ZM250.999 -3H250.999V3H250.999V-3ZM253.999 5.2592V0H247.999V5.2592H253.999ZM256.259 2.25913L250.999 2.2592L250.999 8.2592L256.259 8.25913L256.259 2.25913ZM259.259 13.1484V5.25913H253.259V13.1484H259.259ZM258 10.1484H256.259V16.1484H258V10.1484ZM261 34.187V13.1484H255V34.187H261ZM256.259 37.187H258V31.187H256.259V37.187ZM259.259 42.0763V34.187H253.259V42.0763H259.259ZM258 39.0764L256.259 39.0763L256.258 45.0763L258 45.0764L258 39.0764ZM250.999 45.0764H258V39.0764H250.999V45.0764ZM253.999 47V42.0764H247.999V47H253.999ZM250.999 50H250.999V44H250.999V50ZM247.999 44.706V47H253.999V44.706H247.999ZM243.109 47.706H250.999V41.706H243.109V47.706ZM246.109 47V44.706H240.109V47H246.109ZM15.7788 50H243.109V44H15.7788V50ZM12.7788 44.706V47H18.7788V44.706H12.7788ZM7.8895 47.706H15.7788V41.706H7.8895V47.706ZM10.8895 47V44.706H4.8895V47H10.8895ZM7.88937 50H7.8895V44H7.88937V50ZM4.88937 42.0764V47H10.8894V42.0764H4.88937ZM6.86646e-05 45.0764H7.88937V39.0764H6.86646e-05V45.0764ZM3.00007 47V42.0764H-2.99993V47H3.00007ZM0 50H6.86646e-05V44H0V50ZM-3 42.0763V47H3V42.0763H-3ZM2.62954 39.0763H0V45.0763H2.62954V39.0763ZM-0.370461 34.187V42.0763H5.62954V34.187H-0.370461ZM0 37.187H2.62954V31.187H0V37.187ZM-3 13.149V34.187H3V13.149H-3ZM2.62954 10.149H0V16.149H2.62954V10.149ZM-0.370461 5.25966V13.149H5.62954V5.25966H-0.370461ZM0 8.25966H2.62954V2.25966H0V8.25966ZM-3 0V5.25966H3V0H-3ZM6.86646e-05 -3H0V3H6.86646e-05V-3ZM3.00007 5.25953V0H-2.99993V5.25953H3.00007ZM7.88937 2.25953H6.86646e-05V8.25953H7.88937V2.25953ZM4.88937 0V5.25953H10.8894V0H4.88937ZM7.8895 -3H7.88937V3H7.8895V-3ZM10.8895 2.62994V0H4.8895V2.62994H10.8895Z" fill="#FF3D3D" mask="url(#path-1-inside-1_2113_105)"/>
<rect x="8" y="3" width="243" height="41" fill="#FF3D3D"/>
<rect x="249" y="7" width="7" height="34" fill="#FF3D3D"/>
<rect x="3" y="7" width="7" height="33" fill="#FF3D3D"/>
</svg>
