<svg width="258" height="47" viewBox="0 0 258 47" fill="none" xmlns="http://www.w3.org/2000/svg">
<mask id="path-1-inside-1_1_74" fill="white">
<path fill-rule="evenodd" clip-rule="evenodd" d="M7.8894 2.62994H15.7787V0H243.109V2.62959H250.999L250.999 0V5.25919L256.259 5.25913V13.1484H258V34.187H256.259V42.0763L258 42.0764H250.999V47L250.999 44.706H243.109V47H15.7787V44.706H7.8894V47H7.8893V42.0764H0V42.0763H2.62954V34.187H0V13.149H2.62954V5.25966H0V5.25953H7.8893V0H7.8894V2.62994Z"/>
</mask>
<path d="M15.7787 2.62994V5.62994H18.7787V2.62994H15.7787ZM7.8894 2.62994H4.8894V5.62994H7.8894V2.62994ZM15.7787 0V-3H12.7787V0H15.7787ZM243.109 0H246.109V-3H243.109V0ZM243.109 2.62959H240.109V5.62959H243.109V2.62959ZM250.999 2.62959V5.62959H253.998L253.999 2.62972L250.999 2.62959ZM250.999 0H253.999L247.999 -0.000121857L250.999 0ZM250.999 5.25919H247.999V8.25922L250.999 8.25919L250.999 5.25919ZM256.259 5.25913H259.259V2.2591L256.259 2.25913L256.259 5.25913ZM256.259 13.1484H253.259V16.1484H256.259V13.1484ZM258 13.1484H261V10.1484H258V13.1484ZM258 34.187V37.187H261V34.187H258ZM256.259 34.187V31.187H253.259V34.187H256.259ZM256.259 42.0763H253.259V45.0761L256.258 45.0763L256.259 42.0763ZM258 42.0764V45.0764L258 39.0764L258 42.0764ZM250.999 42.0764V39.0764H247.999V42.0764H250.999ZM250.999 47L247.999 47.0001L253.999 47H250.999ZM250.999 44.706L253.999 44.7059L253.998 41.706H250.999V44.706ZM243.109 44.706V41.706H240.109V44.706H243.109ZM243.109 47V50H246.109V47H243.109ZM15.7787 47H12.7787V50H15.7787V47ZM15.7787 44.706H18.7787V41.706H15.7787V44.706ZM7.8894 44.706V41.706H4.8894V44.706H7.8894ZM7.8894 47V50H10.8894V47H7.8894ZM7.8893 47H4.8893V50H7.8893V47ZM7.8893 42.0764H10.8893V39.0764H7.8893V42.0764ZM0 42.0764H-3V45.0764H0V42.0764ZM0 42.0763V39.0763H-3V42.0763H0ZM2.62954 42.0763V45.0763H5.62954V42.0763H2.62954ZM2.62954 34.187H5.62954V31.187H2.62954V34.187ZM0 34.187H-3V37.187H0V34.187ZM0 13.149V10.149H-3V13.149H0ZM2.62954 13.149V16.149H5.62954V13.149H2.62954ZM2.62954 5.25966H5.62954V2.25966H2.62954V5.25966ZM0 5.25966H-3V8.25966H0V5.25966ZM0 5.25953V2.25953H-3V5.25953H0ZM7.8893 5.25953V8.25953H10.8893V5.25953H7.8893ZM7.8893 0V-3H4.8893V0H7.8893ZM7.8894 0H10.8894V-3H7.8894V0ZM15.7787 -0.370059H7.8894V5.62994H15.7787V-0.370059ZM12.7787 0V2.62994H18.7787V0H12.7787ZM243.109 -3H15.7787V3H243.109V-3ZM246.109 2.62959V0H240.109V2.62959H246.109ZM250.999 -0.370405H243.109V5.62959H250.999V-0.370405ZM247.999 -0.000121857L247.999 2.62947L253.999 2.62972L253.999 0.000121857L247.999 -0.000121857ZM253.999 5.25919V0H247.999V5.25919H253.999ZM256.259 2.25913L250.999 2.25919L250.999 8.25919L256.259 8.25913L256.259 2.25913ZM259.259 13.1484V5.25913H253.259V13.1484H259.259ZM258 10.1484H256.259V16.1484H258V10.1484ZM261 34.187V13.1484H255V34.187H261ZM256.259 37.187H258V31.187H256.259V37.187ZM259.259 42.0763V34.187H253.259V42.0763H259.259ZM258 39.0764L256.259 39.0763L256.258 45.0763L258 45.0764L258 39.0764ZM250.999 45.0764H258V39.0764H250.999V45.0764ZM253.999 47V42.0764H247.999V47H253.999ZM247.999 44.7062L247.999 47.0001L253.999 46.9999L253.999 44.7059L247.999 44.7062ZM243.109 47.706H250.999V41.706H243.109V47.706ZM246.109 47V44.706H240.109V47H246.109ZM15.7787 50H243.109V44H15.7787V50ZM12.7787 44.706V47H18.7787V44.706H12.7787ZM7.8894 47.706H15.7787V41.706H7.8894V47.706ZM10.8894 47V44.706H4.8894V47H10.8894ZM7.8893 50H7.8894V44H7.8893V50ZM4.8893 42.0764V47H10.8893V42.0764H4.8893ZM0 45.0764H7.8893V39.0764H0V45.0764ZM-3 42.0763V42.0764H3V42.0763H-3ZM2.62954 39.0763H0V45.0763H2.62954V39.0763ZM-0.370461 34.187V42.0763H5.62954V34.187H-0.370461ZM0 37.187H2.62954V31.187H0V37.187ZM-3 13.149V34.187H3V13.149H-3ZM2.62954 10.149H0V16.149H2.62954V10.149ZM-0.370461 5.25966V13.149H5.62954V5.25966H-0.370461ZM0 8.25966H2.62954V2.25966H0V8.25966ZM-3 5.25953V5.25966H3V5.25953H-3ZM7.8893 2.25953H0V8.25953H7.8893V2.25953ZM4.8893 0V5.25953H10.8893V0H4.8893ZM7.8894 -3H7.8893V3H7.8894V-3ZM10.8894 2.62994V0H4.8894V2.62994H10.8894Z" fill="#FF3D3D" mask="url(#path-1-inside-1_1_74)"/>
</svg>
