<?xml version="1.0" encoding="UTF-8"?>
<svg width="20px" height="20px" viewBox="0 0 20 20" version="1.1" xmlns="http://www.w3.org/2000/svg">
    <g id="Page-1" stroke="none" stroke-width="1" fill="none" fill-rule="evenodd">
        <g id="Group-3" transform="translate(0.080395, 0.872845)" fill="#D8D8D8">
            <path d="M19,0 L19,5.81865953 L17.3833534,5.81865953 L17.3833534,7.45119473 L15.7692631,7.45119473 L15.7692631,9.06966105 L14.1028153,9.06966105 L14.1028153,10.7336684 L12.4915551,10.7336684 L12.4915551,12.4003258 L10.8029226,12.4003258 L10.8029226,14.0073916 L9.17865297,14.0073916 L9.17865297,15.5968097 L10.7195706,15.5968097 L10.7195706,19 L7.39206131,19 L7.39206131,17.2875676 L9.05713972,17.2875676 L9.05713972,15.6682316 L5.86780498,15.6682316 L5.86780498,17.2875676 L4.21820102,17.2875676 L4.21820102,19 L0,19 L0,14.8728568 L1.58116969,14.8728568 L1.58116969,13.1502649 L3.22648492,13.1502649 L3.22648492,9.97354325 L1.77290139,9.97354325 L1.77290139,11.5567613 L0,11.5567613 L0,8.28048694 L3.36368261,8.28048694 L3.36368261,9.82068062 L4.8645675,9.82068062 L4.8645675,8.28048694 L6.56931346,8.28048694 L6.56931346,6.60342035 L8.21521998,6.60342035 L8.21521998,4.93363431 L9.89729011,4.93363431 L9.89729011,3.284478 L11.4752625,3.284478 L11.4752625,1.63556611 L13.1201191,1.63556611 L13.1201191,0 L19,0 Z M17.252802,1.65766241 L13.2313161,1.65766241 L13.2313161,3.31962675 L11.5928501,3.31962675 L11.5928501,5.00647388 L9.89729011,5.00647388 L9.89729011,6.66061652 L8.29482896,6.66061652 L8.29482896,8.30024014 L6.62116885,8.30024014 L6.62116885,9.90759925 L4.97065195,9.90759925 L4.97065195,13.2133425 L3.33602032,13.2133425 L3.33602032,14.9063003 L1.72060622,14.9063003 L1.72060622,17.240393 L4.17584028,17.240393 L4.17584028,15.6169017 L5.75405178,15.6169017 L5.75405178,13.9723406 L9.10036776,13.9723406 L9.10036776,12.3650304 L10.7126778,12.3650304 L10.7126778,10.6722681 L12.3966999,10.6722681 L12.3966999,9.06966105 L14.0392285,9.06966105 L14.0392285,7.40001149 L15.6558751,7.40001149 L15.6558751,5.78458626 L17.252802,5.78458626 L17.252802,1.65766241 Z" id="Combined-Shape"></path>
            <polygon id="Path-10" points="7.41428224 11.5634669 7.41428224 9.86769889 9.03661114 9.86769889 9.03661114 8.21600709 10.6659063 8.21600709 10.6659063 6.57667312 12.3107581 6.57667312 12.3107581 4.91848203 13.9800986 4.91848203 13.9800986 3.28880547 15.6636708 3.28880547 15.6636708 4.91848203 14.0693352 4.91848203 14.0693352 6.64445808 12.4329456 6.64445808 12.4329456 8.2800847 10.7666822 8.2800847 10.7666822 9.96225912 9.13136096 9.96225912 9.13136096 11.5634669"></polygon>
        </g>
    </g>
</svg>