<svg width="24px" height="20px" viewBox="0 0 24 20" version="1.1" xmlns="http://www.w3.org/2000/svg">
    <title>Path 11</title>
    <g id="Page-1" stroke="none" stroke-width="1" fill="none" fill-rule="evenodd">
        <g id="Group" fill="#D8D8D8">
            <polygon id="Path-11" points="0 19.5 3.83649357 19.5 3.83649357 18.037217 5.16163321 18.037217 5.16163321 19.5 20.4799089 19.5 20.4799089 16.3299611 19.0238187 16.3299611 19.0238187 13.4145319 20.4799089 13.4145319 20.4799089 10.1930815 19.0238187 10.1930815 19.0238187 13.2485288 17.4264335 13.2485288 17.4264335 16.3299611 18.7815484 16.3299611 18.7815484 17.7352631 15.9384873 17.7352631 15.9384873 16.3299611 14.523187 16.3299611 14.523187 14.8465407 11.4051768 14.8465407 11.4051768 16.3299611 14.2952578 16.3299611 14.2952578 17.7352631 5.35018319 17.7352631 5.35018319 15.0307961 6.97625048 15.0307961 6.97625048 10.3599319 9.19277075 10.3599319 9.19277075 8.76811496 13.6718908 8.76811496 13.6718908 7.40538701 15.1670076 7.40538701 15.1670076 8.76811496 21.9341182 8.76811496 21.9341182 7.40538701 23.5 7.40538701 23.5 2.54180657 19.7814275 2.54180657 19.7814275 1.00747055 18.2964201 1.00747055 18.2964201 7.20948451e-17 16.5156572 0 16.5156572 2.54180657 19.546798 2.54180657 19.546798 4.2144785 21.9341182 4.2144785 21.9341182 7.02138562 15.1670076 7.02138562 15.1670076 0 13.5170777 0 13.5170777 7.02138562 9.19277075 7.02138562 9.19277075 8.60831313 6.76677662 8.60831313 6.76677662 10.1930815 5.16163321 10.1930815 5.16163321 14.6509687 3.66922011 14.6509687 3.66922011 17.7352631 0 17.7352631"></polygon>
        </g>
    </g>
</svg>