<svg width="24" height="24" viewBox="0 0 24 24" fill="none" xmlns="http://www.w3.org/2000/svg">
<path d="M17 15H14V16H17V15Z" fill="#FDF9FF"/>
<path d="M13 15H11V16H13V15Z" fill="#FDF9FF"/>
<path d="M10 15H7V16H10V15Z" fill="#FDF9FF"/>
<path d="M19 7H18V6H13V3H11V6H6V7H5V8H4V18H5V19H6V20H18V19H19V18H20V8H19V7ZM17 17V18H7V17H6V9H7V8H17V9H18V17H17Z" fill="#FDF9FF"/>
<path d="M23 11V16H22V17H21V10H22V11H23Z" fill="#FDF9FF"/>
<path d="M2 10H3V17H2V16H1V11H2V10Z" fill="#FDF9FF"/>
<path d="M17 10H14V13H17V10Z" fill="#FDF9FF"/>
<path d="M10 10H7V13H10V10Z" fill="#FDF9FF"/>
</svg>
