<svg width="22px" height="22px" viewBox="0 0 22 22" version="1.1" xmlns="http://www.w3.org/2000/svg" xmlns:xlink="http://www.w3.org/1999/xlink">
    <g id="Page-1" stroke="none" stroke-width="1" fill="none" fill-rule="evenodd">
        <g id="Group" fill="#D8D8D8">
            <path d="M14.7709006,0 L14.7709006,1.44965437 L17.7529563,1.44965437 L17.7529563,2.90906818 L19.0658629,2.90906818 L19.0658629,4.28483387 L20.5940404,4.28483387 L20.5940404,7.14129444 L22,7.14129444 L22,14.8197006 L20.5940404,14.8197006 L20.5940404,17.7109735 L19.2268856,17.7109735 L19.2268856,19.0858781 L17.7529563,19.0858781 L17.7529563,20.6108573 L14.7709006,20.6108573 L14.7709006,22 L7.2620049,22 L7.2620049,20.6108573 L4.2817943,20.6108573 L4.2817943,19.0858781 L2.95166605,19.0858781 L2.95166605,17.7109735 L1.35792318,17.7109735 L1.35792318,14.8197006 L0,14.8197006 L0,7.14129444 L1.35792318,7.14129444 L1.35792318,4.28483387 L2.95166605,4.28483387 L2.95166605,2.90906818 L4.2817943,2.90906818 L4.2817943,1.44965437 L7.2620049,1.44965437 L7.2620049,0 L14.7709006,0 Z M14.7716386,1.52866614 L7.27615127,1.52866614 L7.27615127,2.91940119 L4.33396101,2.91940119 L4.33396101,4.3386544 L2.99730348,4.3386544 L2.99730348,7.17918212 L1.58500325,7.17918212 L1.58500325,14.803094 L2.99730348,14.803094 L2.99730348,17.6650901 L4.49558908,17.6650901 L4.49558908,19.1134328 L7.27615127,19.1134328 L7.27615127,20.5718625 L14.7716386,20.5718625 L14.7716386,19.1134328 L17.7127209,19.1134328 L17.7127209,17.6650901 L19.1239246,17.6650901 L19.1239246,14.803094 L20.5864137,14.803094 L20.5864137,7.17918212 L19.1239246,7.17918212 L19.1239246,4.3386544 L17.7127209,4.3386544 L17.7127209,2.91940119 L14.7716386,2.91940119 L14.7716386,1.52866614 Z" id="Combined-Shape"></path>
            <polygon id="Path-7" points="10.0675173 3.34359622 11.4436731 3.34359622 11.4436731 5.26010133 13.4059835 5.26010133 13.4059835 6.67853108 14.7741042 6.67853108 14.7741042 8.11855843 13.4059835 8.11855843 13.4059835 6.77643677 8.63040719 6.77643677 8.63040719 9.97958535 13.4059835 9.97958535 13.4059835 11.4403914 14.7741042 11.4403914 14.7741042 15.3443871 13.4059835 15.3443871 13.4059835 16.7519157 11.5228984 16.7519157 11.5228984 18.6703656 10.0675173 18.6703656 10.0675173 16.7519157 8.63040719 16.7519157 8.63040719 15.3443871 7.22799651 15.3443871 7.22799651 13.8970923 8.63040719 13.8970923 8.63040719 15.2030815 13.4059835 15.2030815 13.4059835 11.5420844 8.55194958 11.5420844 8.55194958 10.0543069 7.22799651 10.0543069 7.22799651 6.67853108 8.55194958 6.67853108 8.55194958 5.26010133 10.0675173 5.26010133"></polygon>
        </g>
    </g>
</svg>