<svg width="113" height="40" viewBox="0 0 113 40" fill="none" xmlns="http://www.w3.org/2000/svg">
<path fill-rule="evenodd" clip-rule="evenodd" d="M49.37 7.55184H48.1299C47.7829 7.55184 47.5 7.83479 47.5 8.18175V10.0519V12.5519V15.0519V16.9221C47.5 17.269 47.7829 17.552 48.1299 17.552H50H51.8702C52.2171 17.552 52.5001 17.269 52.5001 16.9221V15.6819C52.5001 15.3349 52.7831 15.0519 53.1299 15.0519H55.0001H56.8701C57.2171 15.0519 57.5 14.769 57.5 14.422V13.1819C57.5 12.835 57.7829 12.5519 58.1299 12.5519H59.37C59.717 12.5519 59.9999 12.2689 59.9999 11.922V10.052V8.18185C59.9999 7.83489 59.717 7.55194 59.37 7.55194H58.1299C57.7829 7.55194 57.5 7.26903 57.5 6.92208V5.68191C57.5 5.33496 57.2171 5.05196 56.8701 5.05196H55.0001H52.5001H50.63C50.2831 5.05196 50.0001 5.33496 50.0001 5.68191V6.92208C50 7.26893 49.717 7.55184 49.37 7.55184ZM100 30.0521V28.1819C100 27.8349 99.7174 27.552 99.3705 27.552H97.5003H95.6302C95.2832 27.552 95.0003 27.2691 95.0003 26.9221V25.682C95.0003 25.3351 95.2832 25.0521 95.6302 25.0521H97.5003H99.3705C99.7174 25.0521 100 24.7691 100 24.4221V23.182C100 22.835 99.7174 22.552 99.3705 22.552H97.5003H95.0003H93.1302C92.7832 22.552 92.5002 22.835 92.5002 23.182V24.4221C92.5002 24.7691 92.2173 25.0521 91.8703 25.0521H90.6301C90.2832 25.0521 90.0002 25.3351 90.0002 25.682V27.552V29.4221C90.0002 29.769 90.2831 30.0521 90.6301 30.0521H92.5002H94.3703C94.7173 30.0521 95.0002 30.335 95.0002 30.6819V31.9221C95.0002 32.269 94.7173 32.5519 94.3703 32.5519H92.5002H90.6301C90.2832 32.5519 90.0002 32.835 90.0002 33.182V34.4221C90.0002 34.7691 90.2831 35.0521 90.6301 35.0521H92.5002H95.0002H96.8702C97.2172 35.0521 97.5001 34.7691 97.5001 34.4221V33.182C97.5001 32.835 97.7831 32.5519 98.13 32.5519H99.3702C99.7171 32.5519 100 32.269 100 31.9221V30.0521H100ZM107.5 30.0521H109.371C109.717 30.0521 110 29.769 110 29.4221V28.1819C110 27.8349 109.717 27.552 109.371 27.552H108.13C107.783 27.552 107.501 27.2691 107.501 26.9221V25.682C107.501 25.3351 107.783 25.0521 108.13 25.0521H110.001H111.871C112.218 25.0521 112.501 24.7691 112.501 24.4221V23.182C112.501 22.835 112.218 22.552 111.871 22.552H110.001H107.501H105.63C105.283 22.552 105 22.835 105 23.182V24.4221C105 24.7691 104.718 25.0521 104.371 25.0521H103.13C102.784 25.0521 102.501 25.3351 102.501 25.682V27.552V30.0521V31.9221C102.501 32.269 102.784 32.5519 103.13 32.5519H104.371C104.718 32.5519 105 32.835 105 33.182V34.4221C105 34.7691 105.283 35.0521 105.63 35.0521H107.501H110.001H111.871C112.218 35.0521 112.501 34.7691 112.501 34.4221V33.182C112.501 32.835 112.218 32.5519 111.871 32.5519H110.001H108.13C107.783 32.5519 107.501 32.269 107.501 31.9221L107.5 30.0521ZM85.0003 31.9221V30.6819C85.0003 30.335 85.2832 30.0521 85.6302 30.0521H86.8704C87.2173 30.0521 87.5002 29.769 87.5002 29.4221V27.552V25.682C87.5002 25.3351 87.2173 25.0521 86.8704 25.0521H85.6302C85.2832 25.0521 85.0003 24.7691 85.0003 24.4221V23.182C85.0003 22.835 84.7174 22.552 84.3704 22.552H82.5003H80.0003H78.1303C77.7833 22.552 77.5004 22.835 77.5004 23.182V24.4221C77.5004 24.7691 77.2174 25.0521 76.8705 25.0521H75.6303C75.2834 25.0521 75.0004 25.3351 75.0004 25.682V27.552V30.0521V32.552V34.4222C75.0004 34.7692 75.2834 35.0522 75.6303 35.0522H77.5005H79.3706C79.7175 35.0522 80.0005 34.7692 80.0005 34.4222V33.1821C80.0005 32.8351 80.2834 32.552 80.6305 32.552H81.8706C82.2176 32.552 82.5005 32.8351 82.5005 33.1821V34.4222C82.5005 34.7692 82.7835 35.0522 83.1305 35.0522H85.0006H86.8707C87.2176 35.0522 87.5005 34.7692 87.5005 34.4222V33.1821C87.5005 32.8351 87.2176 32.552 86.8707 32.552H85.6305C85.2833 32.5519 85.0003 32.269 85.0003 31.9221ZM82.5002 27.552V29.4221C82.5002 29.769 82.2173 30.0521 81.8703 30.0521H80.6302C80.2832 30.0521 80.0002 29.769 80.0002 29.4221V27.552V25.682C80.0002 25.3351 80.2831 25.0521 80.6302 25.0521H81.8703C82.2173 25.0521 82.5002 25.3351 82.5002 25.682V27.552ZM67.5002 30.0521H69.3702C69.7172 30.0521 70.0001 29.769 70.0001 29.4221V28.1819C70.0001 27.8349 69.7172 27.552 69.3702 27.552H68.1301C67.7831 27.552 67.5002 27.2691 67.5002 26.9221V25.682C67.5002 25.3351 67.7831 25.0521 68.1301 25.0521H70.0001H71.8702C72.2172 25.0521 72.5001 24.7691 72.5001 24.4221V23.182C72.5001 22.835 72.2172 22.552 71.8702 22.552H70.0001H67.5001H65.6299C65.283 22.552 65 22.835 65 23.182V24.4221C65 24.7691 64.717 25.0521 64.3702 25.0521H63.13C62.7831 25.0521 62.5001 25.3351 62.5001 25.682V27.552V30.0521V31.9221C62.5001 32.269 62.7832 32.5519 63.13 32.5519H64.3702C64.7171 32.5519 65 32.835 65 33.182V34.4221C65 34.7691 65.283 35.0521 65.6299 35.0521H67.5001H70.0001H71.8702C72.2172 35.0521 72.5001 34.7691 72.5001 34.4221V33.182C72.5001 32.835 72.2172 32.5519 71.8702 32.5519H70.0001H68.1301C67.7831 32.5519 67.5002 32.269 67.5002 31.9221V30.0521ZM57.5001 34.4221V33.182C57.5001 32.835 57.783 32.5519 58.13 32.5519H59.3701C59.7171 32.5519 60 32.269 60 31.9221V30.0521V27.552V25.052V23.1819C60 22.8349 59.7171 22.5519 59.3701 22.5519H57.5001H55.63C55.283 22.5519 55.0001 22.8349 55.0001 23.1819V25.052V27.552V30.0521V31.9221C55.0001 32.269 54.717 32.5519 54.3702 32.5519H53.13C52.7831 32.5519 52.5002 32.269 52.5002 31.9221V30.0521V27.552V25.052V23.1819C52.5002 22.8349 52.2172 22.5519 51.8703 22.5519H50.0001H48.13C47.783 22.5519 47.5001 22.8349 47.5001 23.1819V25.052V27.552V30.0521V31.9221C47.5001 32.269 47.783 32.5519 48.13 32.5519H49.3701C49.7171 32.5519 50 32.835 50 33.182V34.4221C50 34.7691 50.283 35.0521 50.6299 35.0521H52.4999H55H56.87C57.2171 35.0521 57.5001 34.7691 57.5001 34.4221ZM105 15.6818V16.922C105 17.2689 105.283 17.5519 105.63 17.5519H107.5H110H111.87C112.217 17.5519 112.5 17.2689 112.5 16.922V15.6818C112.5 15.3348 112.218 15.0518 111.87 15.0518H110H108.13C107.783 15.0518 107.5 14.7689 107.5 14.4219V12.5518V10.0518V7.55174V5.68172C107.5 5.33476 107.217 5.05176 106.871 5.05176H105H103.13C102.783 5.05176 102.5 5.33476 102.5 5.68172V7.55174V10.0518V12.5518V14.4219C102.5 14.7689 102.783 15.0518 103.13 15.0518H104.371C104.717 15.0519 105 15.3348 105 15.6818ZM92.5003 15.6818V16.922C92.5003 17.2689 92.7833 17.5519 93.1303 17.5519H95.0004H97.5004H99.3706C99.7175 17.5519 100 17.2689 100 16.922V15.6818C100 15.3348 99.7175 15.0518 99.3706 15.0518H97.5004H95.6303C95.2833 15.0518 95.0004 14.7689 95.0004 14.4219V13.1818C95.0004 12.8348 95.2833 12.5518 95.6303 12.5518H96.6507C96.9977 12.5518 97.2807 12.2688 97.2807 11.9219V10.6818C97.2807 10.3348 96.9977 10.0519 96.6507 10.0519H95.6303C95.2833 10.0519 95.0004 9.76887 95.0004 9.42191V8.18175C95.0004 7.83479 95.2833 7.55184 95.6303 7.55184H97.5004H99.3706C99.7175 7.55184 100 7.26893 100 6.92198V5.68181C100 5.33486 99.7175 5.05186 99.3706 5.05186H97.5004H95.2984H95.0004H93.4282C93.0813 5.05186 92.7984 5.33486 92.7984 5.68181V6.92198C92.7984 7.26893 92.5154 7.55184 92.1685 7.55184H90.6304C90.2834 7.55184 90.0004 7.83479 90.0004 8.18175V10.0519V12.5519V14.422C90.0004 14.769 90.2833 15.0519 90.6304 15.0519H91.8705C92.2174 15.0519 92.5003 15.3348 92.5003 15.6818ZM85.0003 11.9219V10.6818C85.0003 10.3348 85.2832 10.0519 85.6302 10.0519H86.8704C87.2173 10.0519 87.5002 9.76887 87.5002 9.42191V7.55184V5.68181C87.5002 5.33486 87.2173 5.05186 86.8704 5.05186H85.0003H83.1302C82.7832 5.05186 82.5002 5.33486 82.5002 5.68181V7.55184V9.42191C82.5002 9.76887 82.2173 10.0519 81.8703 10.0519H80.6302C80.2832 10.0519 80.0002 9.76887 80.0002 9.42191V7.55184V5.68181C80.0002 5.33486 79.7173 5.05186 79.3703 5.05186H77.5001H75.63C75.2831 5.05186 75.0001 5.33486 75.0001 5.68181V7.55184V9.42191C75.0001 9.76887 75.2831 10.0519 75.63 10.0519H76.8702C77.2171 10.0519 77.5 10.3348 77.5 10.6818V11.9219C77.5 12.2688 77.2171 12.5518 76.8702 12.5518H75.63C75.2831 12.5518 75.0001 12.8348 75.0001 13.1818V15.0518V16.922C75.0001 17.2689 75.2831 17.5519 75.63 17.5519H77.5001H79.3703C79.7173 17.5519 80.0002 17.2689 80.0002 16.922V15.0518V13.1818C80.0002 12.8348 80.2831 12.5518 80.6302 12.5518H81.8703C82.2173 12.5518 82.5002 12.8348 82.5002 13.1818V15.0518V16.922C82.5002 17.2689 82.7832 17.5519 83.1302 17.5519H85.0003H86.8704C87.2173 17.5519 87.5002 17.2689 87.5002 16.922V15.0518V13.1818C87.5002 12.8348 87.2173 12.5518 86.8704 12.5518H85.6302C85.2832 12.5519 85.0003 12.2688 85.0003 11.9219ZM70.0002 10.0519V8.18175C70.0002 7.83479 70.2831 7.55184 70.6301 7.55184H71.8702C72.2172 7.55184 72.5001 7.26893 72.5001 6.92198V5.68181C72.5001 5.33486 72.2172 5.05186 71.8702 5.05186H70.0001H67.5001H65H63.1299C62.783 5.05186 62.5 5.33486 62.5 5.68181V6.92198C62.5 7.26893 62.7831 7.55184 63.1299 7.55184H64.3701C64.717 7.55184 64.9999 7.83479 64.9999 8.18175V10.0519V12.5519V14.422C64.9999 14.769 64.7169 15.0519 64.3701 15.0519H63.1299C62.783 15.0519 62.5 15.3349 62.5 15.6819V16.9221C62.5 17.269 62.7831 17.552 63.1299 17.552H65H67.5001H70.0001H71.8702C72.2172 17.552 72.5001 17.269 72.5001 16.9221V15.6819C72.5001 15.3349 72.2172 15.0519 71.8702 15.0519H70.6301C70.2831 15.0519 70.0002 14.769 70.0002 14.422V12.5519V10.0519ZM55.0001 8.18175V10.0519V11.9219C55.0001 12.2688 54.717 12.5518 54.3702 12.5518H53.13C52.7831 12.5518 52.5002 12.2688 52.5002 11.9219V10.0519V8.18175C52.5002 7.83479 52.7832 7.55184 53.13 7.55184H54.3702C54.717 7.55184 55.0001 7.83479 55.0001 8.18175Z" fill="white"/>
<path fill-rule="evenodd" clip-rule="evenodd" d="M37.4995 11.8701V8.1299C37.4995 7.78295 37.2166 7.50004 36.8696 7.50004H35.6295C35.2825 7.50004 34.9996 7.21699 34.9996 6.87004V5.62992C34.9996 5.28297 34.7165 5.00001 34.3697 5.00001H33.1296C32.7826 5.00001 32.4997 4.71701 32.4997 4.37005V3.12989C32.4997 2.78294 32.2167 2.49998 31.8698 2.49998H28.1296C27.7827 2.49998 27.4997 2.21708 27.4997 1.87012V0.629958C27.4997 0.283003 27.2167 0 26.8699 0C22.2897 0 17.7097 0 13.1296 0C12.7826 0 12.4997 0.283003 12.4997 0.629958V1.87012C12.4997 2.21708 12.2168 2.49998 11.8698 2.49998H8.12965C7.7827 2.49998 7.49977 2.78294 7.49977 3.12989V4.37005C7.49977 4.71701 7.21673 5.00001 6.86987 5.00001H5.62973C5.28278 5.00001 4.99985 5.28297 4.99985 5.62992V6.87004C4.99985 7.21699 4.71691 7.50004 4.36996 7.50004H3.12981C2.78286 7.50004 2.49992 7.78295 2.49992 8.1299V11.8701C2.49992 12.2171 2.21689 12.5 1.87004 12.5H0.629896C0.282941 12.5 0 12.7829 0 13.1299V26.8701C0 27.2171 0.283043 27.5001 0.629896 27.5001H1.87004C2.21699 27.5001 2.49992 27.783 2.49992 28.13V31.8701C2.49992 32.2171 2.78286 32.5001 3.12981 32.5001H4.36996C4.71691 32.5001 4.99985 32.783 4.99985 33.1299V34.3701C4.99985 34.717 5.28288 35.0001 5.62973 35.0001H6.86987C7.21683 35.0001 7.49977 35.283 7.49977 35.6299V36.8701C7.49977 37.2171 7.7827 37.5001 8.12965 37.5001H11.8698C12.2168 37.5001 12.4997 37.783 12.4997 38.13V39.3701C12.4997 39.7171 12.7826 40 13.1296 40C17.7097 40 22.2897 40 26.8699 40C27.2168 40 27.4997 39.7171 27.4997 39.3701V38.13C27.4997 37.783 27.7827 37.5001 28.1296 37.5001H31.8698C32.2167 37.5001 32.4997 37.2171 32.4997 36.8701V35.6299C32.4997 35.283 32.7826 35.0001 33.1296 35.0001H34.3697C34.7166 35.0001 34.9996 34.717 34.9996 34.3701V33.1299C34.9996 32.783 35.2825 32.5001 35.6295 32.5001H36.8696C37.2166 32.5001 37.4995 32.2171 37.4995 31.8701V28.13C37.4995 27.783 37.7824 27.5001 38.1294 27.5001H39.3695C39.7165 27.5001 39.9994 27.2171 39.9994 26.8701V13.1299C39.9994 12.7829 39.7165 12.5 39.3695 12.5H38.1294C37.7824 12.5001 37.4995 12.2172 37.4995 11.8701Z" fill="#7B00FF"/>
<path fill-rule="evenodd" clip-rule="evenodd" d="M34.9996 14.3703V12.5002V10.6302C34.9996 10.2832 34.7165 10.0002 34.3697 10.0002H33.1295C32.7826 10.0002 32.4997 9.71726 32.4997 9.3703V8.13014C32.4997 7.78318 32.2167 7.50028 31.8698 7.50028H30.6296C30.2827 7.50028 29.9997 7.21723 29.9997 6.87027V5.63016C29.9997 5.2832 29.7168 5.00025 29.3699 5.00025H27.4998H25.6297C25.2827 5.00025 24.9998 4.71724 24.9998 4.37029V3.13013C24.9998 2.78317 24.7169 2.50022 24.3699 2.50022H22.4998H19.9997H17.4997H15.6296C15.2826 2.50022 14.9997 2.78317 14.9997 3.13013V4.37029C14.9997 4.71724 14.7168 5.00025 14.3698 5.00025H12.4997H10.6297C10.2827 5.00025 9.99977 5.2832 9.99977 5.63016V6.87027C9.99977 7.21723 9.71684 7.50028 9.36989 7.50028H8.12973C7.78278 7.50028 7.49985 7.78318 7.49985 8.13014V9.3703C7.49985 9.71726 7.21681 10.0002 6.86996 10.0002H5.62982C5.28286 10.0002 4.99993 10.2832 4.99993 10.6302V12.5002V14.3703C4.99993 14.7172 4.71699 15.0002 4.37004 15.0002H3.1299C2.78294 15.0002 2.5 15.2832 2.5 15.6301V24.3703C2.5 24.7173 2.78294 25.0003 3.1299 25.0003H4.37004C4.71699 25.0003 4.99993 25.2833 4.99993 25.6302V27.5003V29.3704C4.99993 29.7174 5.28296 30.0003 5.62982 30.0003H6.86996C7.21691 30.0003 7.49985 30.2833 7.49985 30.6303V31.8704C7.49985 32.2173 7.78278 32.5003 8.12973 32.5003H9.36989C9.71684 32.5003 9.99977 32.7832 9.99977 33.1301V34.3703C9.99977 34.7173 10.2828 35.0003 10.6297 35.0003H12.4997H14.3698C14.7168 35.0003 14.9997 35.2832 14.9997 35.6302V36.8703C14.9997 37.2173 15.2827 37.5003 15.6296 37.5003H17.4997H19.9997H22.4998H24.3699C24.7169 37.5003 24.9998 37.2173 24.9998 36.8703V35.6302C24.9998 35.2832 25.2828 35.0003 25.6297 35.0003H27.4998H29.3699C29.7168 35.0003 29.9997 34.7173 29.9997 34.3703V33.1301C29.9997 32.7832 30.2828 32.5003 30.6296 32.5003H31.8698C32.2167 32.5003 32.4997 32.2173 32.4997 31.8704V30.6303C32.4997 30.2833 32.7826 30.0003 33.1295 30.0003H34.3697C34.7166 30.0003 34.9996 29.7174 34.9996 29.3704V27.5003V25.6302C34.9996 25.2833 35.2825 25.0003 35.6294 25.0003H36.8696C37.2166 25.0003 37.4995 24.7173 37.4995 24.3703V15.6301C37.4995 15.2832 37.2166 15.0002 36.8696 15.0002H35.6294C35.2825 15.0002 34.9996 14.7172 34.9996 14.3703Z" fill="#8F28FF"/>
<path fill-rule="evenodd" clip-rule="evenodd" d="M29.9993 11.8701V10.6299C29.9993 10.283 29.7164 9.99996 29.3695 9.99996H28.1293C27.7824 9.99996 27.4994 9.71701 27.4994 9.37005V8.12989C27.4994 7.78293 27.2164 7.50003 26.8695 7.50003H24.9994H23.1294C22.7824 7.50003 22.4995 7.21698 22.4995 6.87002V5.62991C22.4995 5.28295 22.2166 5 21.8696 5H19.9995H18.1293C17.7824 5 17.4995 5.28295 17.4995 5.62991V6.87002C17.4995 7.21698 17.2164 7.50003 16.8696 7.50003H14.9994H13.1294C12.7824 7.50003 12.4995 7.78293 12.4995 8.12989V9.37005C12.4995 9.71701 12.2166 9.99996 11.8696 9.99996H10.6295C10.2825 9.99996 9.99959 10.283 9.99959 10.6299V11.8701C9.99959 12.217 9.71667 12.4999 9.36971 12.4999H8.12956C7.7826 12.4999 7.49968 12.7829 7.49968 13.1299V15V16.87C7.49968 17.217 7.21663 17.5 6.86978 17.5H5.62964C5.28268 17.5 4.99976 17.783 4.99976 18.1299V19.9999V21.8701C4.99976 22.217 5.28279 22.5 5.62964 22.5H6.86978C7.21673 22.5 7.49968 22.7829 7.49968 23.1298V24.9999V26.87C7.49968 27.217 7.7826 27.5 8.12956 27.5H9.36971C9.71667 27.5 9.99959 27.7829 9.99959 28.1299V29.37C9.99959 29.717 10.2826 29.9999 10.6295 29.9999H11.8696C12.2166 29.9999 12.4995 30.283 12.4995 30.6299V31.87C12.4995 32.217 12.7824 32.4999 13.1294 32.4999H14.9994H16.8696C17.2165 32.4999 17.4995 32.7828 17.4995 33.1298V34.37C17.4995 34.7169 17.7824 35 18.1293 35H19.9995H21.8696C22.2166 35 22.4995 34.7169 22.4995 34.37V33.1298C22.4995 32.7828 22.7824 32.4999 23.1294 32.4999H24.9994H26.8695C27.2165 32.4999 27.4994 32.217 27.4994 31.87V30.6299C27.4994 30.283 27.7824 29.9999 28.1293 29.9999H29.3695C29.7164 29.9999 29.9993 29.717 29.9993 29.37V28.1299C29.9993 27.7829 30.2824 27.5 30.6292 27.5H31.8694C32.2163 27.5 32.4993 27.217 32.4993 26.87V24.9999V23.1298C32.4993 22.7829 32.7822 22.5 33.1292 22.5H34.3693C34.7163 22.5 34.9992 22.217 34.9992 21.8701V19.9999V18.1299C34.9992 17.783 34.7162 17.5 34.3693 17.5H33.1292C32.7822 17.5 32.4993 17.217 32.4993 16.87V15V13.1299C32.4993 12.7829 32.2163 12.4999 31.8694 12.4999H30.6292C30.2824 12.5 29.9993 12.2171 29.9993 11.8701Z" fill="#A34EFF"/>
<path fill-rule="evenodd" clip-rule="evenodd" d="M24.9999 11.8701V10.63C24.9999 10.283 24.717 10 24.37 10H22.4999H19.9999H17.4999H15.6297C15.2828 10 14.9998 10.283 14.9998 10.63V11.8701C14.9998 12.2171 14.7169 12.5 14.37 12.5H13.1298C12.7828 12.5 12.4999 12.7829 12.4999 13.1299V14.3701C12.4999 14.717 12.217 15 11.87 15H10.6299C10.2829 15 10 15.283 10 15.6299V17.5V20.0001V22.5001V24.3701C10 24.7171 10.283 25.0001 10.6299 25.0001H11.87C12.217 25.0001 12.4999 25.283 12.4999 25.63V26.8702C12.4999 27.2171 12.7828 27.5001 13.1298 27.5001H14.37C14.7169 27.5001 14.9998 27.7831 14.9998 28.13V29.3702C14.9998 29.7171 15.2829 30 15.6297 30H17.4999H19.9999H22.4999H24.37C24.717 30 24.9999 29.7171 24.9999 29.3702V28.13C24.9999 27.7831 25.283 27.5001 25.6298 27.5001H26.87C27.2169 27.5001 27.4998 27.2171 27.4998 26.8702V25.63C27.4998 25.283 27.7828 25.0001 28.1297 25.0001H29.3699C29.7168 25.0001 29.9998 24.7171 29.9998 24.3701V22.5001V20.0001V17.5V15.6299C29.9998 15.283 29.7168 15 29.3699 15H28.1297C27.7828 15 27.4998 14.717 27.4998 14.3701V13.1299C27.4998 12.7829 27.2168 12.5 26.87 12.5H25.6298C25.2829 12.5001 24.9999 12.2172 24.9999 11.8701Z" fill="#B571FF"/>
<path fill-rule="evenodd" clip-rule="evenodd" d="M12.499 20.0002V21.8703C12.499 22.2173 12.782 22.5002 13.1289 22.5002H14.3691C14.716 22.5002 14.9989 22.7831 14.9989 23.1301V24.3702C14.9989 24.7172 15.282 25.0002 15.6288 25.0002H16.869C17.2159 25.0002 17.4989 25.2832 17.4989 25.6301V26.8703C17.4989 27.2172 17.7818 27.5002 18.1287 27.5002H19.9989H21.869C22.216 27.5002 22.4989 27.2172 22.4989 26.8703V25.6301C22.4989 25.2832 22.7818 25.0002 23.1288 25.0002H24.3689C24.7159 25.0002 24.9988 24.7172 24.9988 24.3702V23.1301C24.9988 22.7831 25.2818 22.5002 25.6287 22.5002H26.8689C27.2158 22.5002 27.4987 22.2173 27.4987 21.8703V20.0002V18.1302C27.4987 17.7832 27.2157 17.5003 26.8689 17.5003H25.6287C25.2817 17.5003 24.9988 17.2173 24.9988 16.8703V15.6301C24.9988 15.2832 24.7159 15.0002 24.3689 15.0002H23.1288C22.7818 15.0002 22.4989 14.7172 22.4989 14.3703V13.1301C22.4989 12.7831 22.216 12.5002 21.869 12.5002H19.9989H18.1287C17.7818 12.5002 17.4989 12.7831 17.4989 13.1301V14.3703C17.4989 14.7172 17.2158 15.0002 16.869 15.0002H15.6288C15.2819 15.0002 14.9989 15.2832 14.9989 15.6301V16.8703C14.9989 17.2173 14.716 17.5003 14.3691 17.5003H13.1289C12.782 17.5003 12.499 17.7832 12.499 18.1302V20.0002Z" fill="#CB9AFF"/>
<path fill-rule="evenodd" clip-rule="evenodd" d="M17.499 20.0002V21.8703C17.499 22.2173 17.782 22.5002 18.1289 22.5002H19.9991H21.8692C22.2161 22.5002 22.4991 22.2173 22.4991 21.8703V20.0002V18.1302C22.4991 17.7832 22.2161 17.5002 21.8692 17.5002H19.9991H18.1289C17.782 17.5002 17.499 17.7832 17.499 18.1302V20.0002Z" fill="#DFC2FF"/>
<path fill-rule="evenodd" clip-rule="evenodd" d="M28.7499 22.5002H29.37C29.717 22.5002 29.9999 22.2172 29.9999 21.8703V20.0001V17.5001V15.0001V13.13C29.9999 12.783 29.717 12.5001 29.37 12.5001H28.7499V7.50003H29.37C29.717 7.50003 29.9999 7.78293 29.9999 8.12989V9.37005C29.9999 9.71701 30.2829 9.99996 30.6298 9.99996H31.8699C32.2169 9.99996 32.4998 10.283 32.4998 10.6299V11.8701C32.4998 12.217 32.7828 12.4999 33.1297 12.4999H34.3699C34.7168 12.4999 34.9997 12.7829 34.9997 13.1299V15V17.5V20V21.8702C34.9997 22.2171 34.7167 22.5001 34.3699 22.5001H33.1297C32.7828 22.5001 32.4998 22.783 32.4998 23.1299V24.3701C32.4998 24.717 32.2169 25 31.8699 25H30.6298C30.2828 25 29.9999 25.283 29.9999 25.63V26.8701C29.9999 27.2171 29.717 27.5001 29.37 27.5001H28.7499V22.5002ZM28.7499 32.5002V30.0002H29.37C29.717 30.0002 29.9999 30.2833 29.9999 30.6302V31.8703C29.9999 32.2173 29.717 32.5002 29.37 32.5002H28.7499ZM23.7498 12.5001H24.37C24.7169 12.5001 24.9999 12.783 24.9999 13.13V14.3701C24.9999 14.7171 25.2829 15.0001 25.6297 15.0001H26.8699C27.2169 15.0001 27.4998 15.283 27.4998 15.63V17.5001V19.3701C27.4998 19.7171 27.2168 20 26.8699 20H25.6297C25.2828 20 24.9999 20.283 24.9999 20.63V21.8702C24.9999 22.2171 24.7169 22.5001 24.37 22.5001H23.7498V12.5001ZM23.7498 25.0002V27.5002H24.9999H27.4999L28.7499 27.5001V22.5002H28.1298C27.7828 22.5002 27.4999 22.7831 27.4999 23.13V24.3702C27.4999 24.7171 27.2169 25.0002 26.87 25.0002H24.9999H23.7498ZM28.7499 12.5001V7.50003H27.4999H25.6297C25.2828 7.50003 24.9999 7.21698 24.9999 6.87002V5.62991C24.9999 5.28295 24.7169 5 24.37 5H23.7498V10.0001H24.9999H26.87C27.217 10.0001 27.4999 10.2831 27.4999 10.63V11.8702C27.4999 12.2171 27.7828 12.5001 28.1298 12.5001H28.7499ZM28.7499 30.0002V32.5002L28.1298 32.5001C27.7828 32.5001 27.4999 32.2172 27.4999 31.8702V30.6301C27.4999 30.2832 27.7828 30.0001 28.1298 30.0001L28.7499 30.0002ZM23.7498 35.0003V32.5002H24.37C24.7169 32.5002 24.9999 32.7831 24.9999 33.1301V34.3703C24.9999 34.7172 24.7169 35.0003 24.37 35.0003H23.7498ZM19.9998 33.1301V34.3703C19.9998 34.7172 19.7169 35.0003 19.3699 35.0003H17.4999H16.2499V30.0002H16.87C17.217 30.0002 17.4999 30.2833 17.4999 30.6302V31.8703C17.4999 32.2173 17.7828 32.5002 18.1298 32.5002H19.3699C19.7169 32.5002 19.9998 32.7831 19.9998 33.1301ZM16.2498 12.5001H17.4998H19.9998H22.4998H23.7498V22.5001L22.4998 22.5002H20.6298C20.2829 22.5002 19.9999 22.2172 19.9999 21.8703V20.6301C19.9999 20.2831 19.717 20.0001 19.37 20.0001H18.1299C17.7829 20.0001 17.5 20.2831 17.5 20.6301V22.5002V24.3702C17.5 24.7171 17.7829 25.0002 18.1299 25.0002H20H22.5H23.7501V27.5002H22.5H20H17.5H16.25V17.5001H17.5H19.37C19.717 17.5001 19.9999 17.7831 19.9999 18.13V19.3701C19.9999 19.7171 20.283 20 20.6298 20H21.87C22.2169 20 22.4998 19.7171 22.4998 19.3701V17.5001V15.63C22.4998 15.283 22.2169 15.0001 21.87 15.0001H19.9998H17.4998H16.2498V12.5001ZM23.7498 10.0001H23.1298C22.7829 10.0001 22.4999 9.71711 22.4999 9.37015V8.12999C22.4999 7.78303 22.217 7.50013 21.8701 7.50013H20.6299C20.283 7.50013 20 7.21708 20 6.87012V5.63001C20 5.28305 20.2831 5.0001 20.6299 5.0001H22.4999H23.75V10.0001H23.7498ZM23.7498 32.5002V35.0003H23.1298C22.7829 35.0003 22.4999 34.7172 22.4999 34.3703V33.1301C22.4999 32.7831 22.7829 32.5002 23.1298 32.5002H23.7498ZM16.2498 7.50003V5H16.8699C17.2169 5 17.4998 5.28295 17.4998 5.62991V6.87002C17.4998 7.21698 17.2168 7.50003 16.8699 7.50003H16.2498ZM16.2499 35.0003H15.6297C15.2827 35.0003 14.9998 34.7172 14.9998 34.3703V33.1301C14.9998 32.7831 14.7168 32.5002 14.3699 32.5002H12.4998H11.2497V27.5002H11.8699C12.2168 27.5002 12.4998 27.7831 12.4998 28.1301V29.3703C12.4998 29.7172 12.7827 30.0001 13.1296 30.0001H14.9997H16.2497V35.0003H16.2499ZM11.2497 12.5001H12.4998H14.9998H16.2498V15.0001H14.9998H13.1297C12.7828 15.0001 12.4999 15.283 12.4999 15.63V16.8701C12.4999 17.2171 12.2169 17.5001 11.87 17.5001H11.2499V12.5001H11.2497ZM16.2498 27.5002V17.5001H15.6297C15.2827 17.5001 14.9998 17.7831 14.9998 18.13V19.3701C14.9998 19.7171 14.7168 20 14.3699 20H13.1297C12.7828 20 12.4999 20.283 12.4999 20.63V22.5001V24.3701C12.4999 24.717 12.7828 25 13.1297 25H14.3699C14.7168 25 14.9998 25.283 14.9998 25.63V26.8701C14.9998 27.2171 15.2828 27.5001 15.6297 27.5001L16.2498 27.5002ZM16.2498 5V7.50003H15.6297C15.2827 7.50003 14.9998 7.21698 14.9998 6.87002V5.62991C14.9998 5.28295 15.2828 5 15.6297 5H16.2498ZM11.2497 10.0001V7.50003H11.8699C12.2168 7.50003 12.4998 7.78293 12.4998 8.12989V9.37005C12.4998 9.71701 12.2168 9.99996 11.8699 9.99996L11.2497 10.0001ZM11.2497 32.5002H10.6297C10.2828 32.5002 9.99984 32.2173 9.99984 31.8703V30.6302C9.99984 30.2833 9.71691 30.0002 9.36996 30.0002H8.1298C7.78285 30.0002 7.49992 29.7173 7.49992 29.3703V28.1302C7.49992 27.7832 7.21689 27.5003 6.87004 27.5003H5.62988C5.28293 27.5003 5 27.2173 5 26.8703V25.0003V22.5003V20.0002V18.1302C5 17.7833 5.28303 17.5003 5.62988 17.5003H6.87004C7.21699 17.5003 7.49992 17.2173 7.49992 16.8703V15.6302C7.49992 15.2832 7.78285 15.0003 8.1298 15.0003H9.36996C9.71691 15.0003 9.99984 14.7173 9.99984 14.3703V13.1301C9.99984 12.7832 10.2829 12.5003 10.6297 12.5003H11.2497V17.5003H10.6297C10.2828 17.5003 9.99984 17.7833 9.99984 18.1302V20.0002V22.5003V25.0003V26.8703C9.99984 27.2173 10.2829 27.5003 10.6297 27.5003L11.2497 27.5002V32.5002ZM11.2497 7.50003V10.0001H10.6297C10.2828 10.0001 9.99984 9.71711 9.99984 9.37015V8.12999C9.99984 7.78303 10.2829 7.50013 10.6297 7.50013L11.2497 7.50003Z" fill="white"/>
</svg>
