<svg width="35" height="35" viewBox="0 0 35 35" fill="none" xmlns="http://www.w3.org/2000/svg">
<rect width="3" height="29" transform="matrix(-1 0 0 1 3 3)" fill="#232330"/>
<rect width="3" height="29" transform="matrix(0 -1 -1 0 32 3)" fill="#232330"/>
<rect width="29" height="29" transform="matrix(0 -1 -1 0 32 32)" fill="#232330"/>
<rect width="3" height="29" transform="matrix(0 -1 -1 0 32 35)" fill="#232330"/>
<g clipPath="url(#clip0_1_1620)">
<path d="M23.8509 11.1877C22.6215 10.6249 21.3236 10.2256 19.9905 10C19.808 10.3261 19.643 10.6617 19.4959 11.0052C18.0759 10.7912 16.6317 10.7912 15.2116 11.0052C15.0645 10.6617 14.8995 10.3262 14.7171 10C13.3831 10.2275 12.0844 10.6277 10.8537 11.1907C8.41061 14.8053 7.74831 18.3302 8.07946 21.805C9.51022 22.8621 11.1116 23.6661 12.8141 24.1819C13.1975 23.6663 13.5367 23.1194 13.8282 22.5468C13.2745 22.34 12.7402 22.0849 12.2313 21.7844C12.3652 21.6873 12.4962 21.5872 12.6228 21.4901C14.1035 22.1864 15.7197 22.5475 17.356 22.5475C18.9923 22.5475 20.6085 22.1864 22.0892 21.4901C22.2172 21.5946 22.3482 21.6946 22.4807 21.7844C21.9708 22.0854 21.4355 22.341 20.8809 22.5483C21.172 23.1206 21.5112 23.6671 21.8949 24.1819C23.5989 23.6682 25.2015 22.8646 26.6325 21.8065C27.0211 17.7768 25.9688 14.2843 23.8509 11.1877ZM14.2476 19.668C13.3248 19.668 12.5625 18.8306 12.5625 17.8004C12.5625 16.7701 13.2983 15.9253 14.2447 15.9253C15.191 15.9253 15.9475 16.7701 15.9313 17.8004C15.9151 18.8306 15.1881 19.668 14.2476 19.668ZM20.4644 19.668C19.5401 19.668 18.7807 18.8306 18.7807 17.8004C18.7807 16.7701 19.5165 15.9253 20.4644 15.9253C21.4122 15.9253 22.1628 16.7701 22.1466 17.8004C22.1304 18.8306 21.4048 19.668 20.4644 19.668Z" fill="white"/>
</g>
<rect width="3" height="29" transform="matrix(-1 0 0 1 35 3)" fill="#232330"/>
<defs>
<clipPath id="clip0_1_1620">
<rect width="19" height="13.8182" fill="white" transform="translate(8 10)"/>
</clipPath>
</defs>
</svg>
