<svg width="134" height="134" viewBox="0 0 134 134" fill="none" xmlns="http://www.w3.org/2000/svg">
<g>
<rect x="39.0835" width="55.8333" height="8.375" fill="#69AE6C"/>
<rect x="39.0835" y="44.6666" width="55.8333" height="8.375" fill="#69AE6C"/>
<rect x="39.0835" y="125.625" width="55.8333" height="8.375" fill="#69AE6C"/>
<rect x="19.5415" y="5.58344" width="19.5417" height="8.375" fill="#69AE6C"/>
<rect x="19.5415" y="39.0834" width="19.5417" height="8.375" fill="#69AE6C"/>
<rect x="19.5415" y="120.042" width="19.5417" height="8.375" fill="#69AE6C"/>
<rect x="94.9165" y="5.58344" width="19.5417" height="8.375" fill="#69AE6C"/>
<rect x="94.9165" y="39.0834" width="19.5417" height="8.375" fill="#69AE6C"/>
<rect x="94.9165" y="120.042" width="19.5417" height="8.375" fill="#69AE6C"/>
<rect x="5.5835" y="13.9584" width="13.9583" height="8.375" fill="#69AE6C"/>
<rect x="5.5835" y="30.7084" width="13.9583" height="8.375" fill="#69AE6C"/>
<rect x="5.5835" y="111.667" width="13.9583" height="8.375" fill="#69AE6C"/>
<rect x="114.458" y="13.9584" width="13.9583" height="8.375" fill="#69AE6C"/>
<rect x="114.458" y="30.7084" width="13.9583" height="8.375" fill="#69AE6C"/>
<rect x="114.458" y="111.667" width="13.9583" height="8.375" fill="#69AE6C"/>
<rect y="22.3334" width="8.375" height="8.375" fill="#69AE6C"/>
<rect y="30.7084" width="8.375" height="80.9583" fill="#69AE6C"/>
<rect x="125.625" y="30.7084" width="8.375" height="80.9583" fill="#69AE6C"/>
<rect x="125.625" y="22.3334" width="8.375" height="8.375" fill="#69AE6C"/>
<rect x="125.625" y="103.292" width="8.375" height="8.375" fill="#69AE6C"/>
<rect x="39.082" y="100.5" width="55.8333" height="8.375" fill="#69AE6C"/>
<rect x="19.5405" y="94.917" width="19.5417" height="8.375" fill="#69AE6C"/>
<rect x="94.9155" y="94.917" width="19.5417" height="8.375" fill="#69AE6C"/>
<rect x="5.58203" y="86.542" width="13.9583" height="8.375" fill="#69AE6C"/>
<rect x="114.457" y="86.542" width="13.9583" height="8.375" fill="#69AE6C"/>
<rect x="39.082" y="72.5834" width="55.8333" height="8.375" fill="#69AE6C"/>
<rect x="19.5405" y="67" width="19.5417" height="8.375" fill="#69AE6C"/>
<rect x="94.9155" y="67" width="19.5417" height="8.375" fill="#69AE6C"/>
<rect x="5.58203" y="58.625" width="13.9583" height="8.375" fill="#69AE6C"/>
<rect x="114.457" y="58.625" width="13.9583" height="8.375" fill="#69AE6C"/>
</g>
</svg>
