<svg width="148" height="132" viewBox="0 0 148 132" fill="none" xmlns="http://www.w3.org/2000/svg">
<path d="M29.9998 66H37.3332V73.3333H81.3332V66H88.6665V58.6667H95.9998V14.6667H88.6665V7.33334H81.3332V1.90735e-06H37.3332V7.33334H29.9998V14.6667H22.6665V58.6667H29.9998V66ZM37.3332 29.3333H44.6665V22H51.9998V14.6667H66.6665V22H73.9998V29.3333H81.3332V44H73.9998V51.3333H66.6665V58.6667H51.9998V51.3333H44.6665V44H37.3332V29.3333Z" fill="#8F50AD"/>
<path d="M103.333 88H95.9998V80.6667H15.3332V88H7.99984V95.3333H0.666504V132H15.3332V110H22.6665V102.667H29.9998V95.3333H81.3332V102.667H88.6665V110H95.9998V132H110.667V95.3333H103.333V88Z" fill="#8F50AD"/>
<path d="M118 66H125.333V58.6667H132.667V14.6667H125.333V7.33334H118V1.90735e-06H110.667H103.333V22H110.667V29.3333H118V36.6667V44H110.667V51.3333H103.333V73.3333H118V66Z" fill="#8F50AD"/>
<path d="M140 95.3333V88H132.667V80.6667H118V102.667H125.333V110H132.667V132H147.333V95.3333H140Z" fill="#8F50AD"/>
</svg>
