<svg width="80" height="74" viewBox="0 0 80 74" fill="none" xmlns="http://www.w3.org/2000/svg">
<g clipPath="url(#clip0_1_2877)">
<path d="M78.1465 0L43.8193 25.0405L50.2028 10.2834L78.1465 0Z" fill="#E17726"/>
<path d="M1.93502 0.029541L29.8041 10.2852L35.8653 25.2358L1.93502 0.029541ZM64.3316 53.2542L79.5038 53.5389L74.2013 71.2973L55.6878 66.2722L64.3316 53.2542ZM15.6688 53.2542L24.2803 66.2722L5.79814 71.2976L0.527832 53.5389L15.6688 53.2542Z" fill="#E27625"/>
<path d="M35.0409 21.4276L35.6609 41.1704L17.1074 40.3382L22.3849 32.4889L22.4518 32.4135L35.0409 21.4276ZM44.7668 21.2073L57.548 32.4141L57.6143 32.4893L62.8918 40.3385L44.3424 41.1704L44.7668 21.2073ZM24.8234 53.3115L34.954 61.0933L23.1859 66.6945L24.8234 53.3115ZM55.1784 53.3103L56.7818 66.6949L45.0465 61.0927L55.1784 53.3103Z" fill="#E27625"/>
<path d="M45.3056 60.3598L57.214 66.0445L46.1369 71.2345L46.2519 67.8043L45.3056 60.3598ZM34.6909 60.3623L33.7819 67.7482L33.8565 71.2305L22.7534 66.0445L34.6909 60.3623Z" fill="#D5BFB2"/>
<path d="M31.2523 43.7472L34.3642 50.1947L23.7695 47.1349L31.2523 43.7472ZM48.7477 43.7478L56.2658 47.1349L45.6364 50.1938L48.7477 43.7478Z" fill="#233447"/>
<path d="M25.6337 53.2456L23.9212 67.1216L14.7422 53.5491L25.6337 53.2456ZM54.3681 53.2459L65.26 53.5491L56.0466 67.1222L54.3681 53.2459ZM63.1606 39.5536L55.2341 47.5178L49.1225 44.7644L46.1966 50.8287L44.2784 40.4005L63.1606 39.5536ZM16.8366 39.5536L35.7225 40.4005L33.8041 50.8287L30.8775 44.7654L24.7984 47.5181L16.8366 39.5536Z" fill="#CC6228"/>
<path d="M16.3013 37.9193L25.2694 46.8909L25.58 55.7479L16.3013 37.9193ZM63.7066 37.9033L54.411 55.7637L54.761 46.8909L63.7066 37.9033ZM35.2828 38.4658L35.6438 40.7056L36.5356 46.2852L35.9622 63.4222L33.2513 49.6557L33.2503 49.5133L35.2828 38.4658ZM44.7113 38.4347L46.7491 49.5133L46.7481 49.6557L44.0303 63.4567L43.9228 60.0047L43.4988 46.1836L44.7113 38.4347Z" fill="#E27525"/>
<path d="M55.5583 46.5343L55.2549 54.2295L45.7943 61.4962L43.8818 60.1641L46.0255 49.2781L55.5583 46.5343ZM24.4736 46.5343L33.9733 49.2781L36.1171 60.1641L34.2046 61.4962L24.7436 54.2289L24.4736 46.5343Z" fill="#F5841F"/>
<path d="M20.9429 64.3451L33.0466 69.999L32.9954 67.5846L34.0082 66.7081H45.9876L47.0369 67.5815L46.9594 69.9941L58.9866 64.3593L53.1341 69.1271L46.0576 73.9187H33.911L26.8391 69.1074L20.9429 64.3451Z" fill="#C0AC9D"/>
<path d="M44.4396 59.6072L46.1508 60.7991L47.1536 68.6872L45.7024 67.4793H34.3036L32.8799 68.7116L33.8499 60.7998L35.5618 59.6072H44.4396Z" fill="#161616"/>
<path d="M75.8794 0.693237L80 12.88L77.4266 25.2023L79.2591 26.5957L76.7794 28.4609L78.6431 29.8799L76.1753 32.0953L77.6903 33.177L73.6697 37.8062L57.1791 33.0725L57.0363 32.9971L45.1528 23.1144L75.8794 0.693237ZM4.12063 0.693237L34.8475 23.1144L22.9638 32.9971L22.8209 33.0725L6.33031 37.8062L2.30969 33.177L3.82344 32.0962L1.35719 29.8799L3.21719 28.4624L0.700312 26.5921L2.60188 25.1977L0 12.8806L4.12063 0.693237Z" fill="#763E1A"/>
<path d="M55.8628 31.5331L73.3356 36.5484L79.0122 53.7966H64.0359L53.7172 53.9247L61.2216 39.5041L55.8628 31.5331ZM23.1178 31.5331L17.7581 39.5041L25.2634 53.9247L14.9494 53.7966H0L5.64469 36.5487L23.1178 31.5331ZM50.5478 9.69696L45.6606 22.71L44.6234 40.2891L44.2266 45.7991L44.195 59.8747H34.7853L34.7547 45.8256L34.3566 40.2845L33.3191 22.71L28.4325 9.69696H50.5478Z" fill="#F5841F"/>
</g>
<defs>
<clipPath id="clip0_1_2877">
<rect width="80" height="73.9394" fill="white"/>
</clipPath>
</defs>
</svg>
