<svg width="46" height="45" viewBox="0 0 46 45" fill="none" xmlns="http://www.w3.org/2000/svg">
<path d="M14.2765 41.2431V42.8294H11.1039V41.2431H14.2765ZM14.2765 39.6569V41.2431H17.449V39.6569H14.2765ZM17.449 38.0706V39.6569H20.6216V38.0706H17.449ZM20.6216 38.0706H22.2078V36.4843H20.6216V38.0706ZM9.51764 38.0706H7.93137V44.4157H11.1039V42.8294H9.51764V38.0706ZM11.1039 31.7255H9.51764V38.0706H11.1039V31.7255ZM12.6902 28.5529H11.1039V31.7255H12.6902V28.5529ZM9.51764 26.9667V28.5529H11.1039V26.9667H9.51764ZM7.93137 25.3804V26.9667H9.51764V25.3804H7.93137ZM6.3451 23.7941V25.3804H7.93137V23.7941H6.3451ZM4.75882 22.2078V23.7941H6.3451V22.2078H4.75882ZM3.17255 20.6216V22.2078H4.75882V20.6216H3.17255ZM1.58627 19.0353V20.6216H3.17255V19.0353H1.58627ZM0 17.449V19.0353H1.58627V17.449H0ZM15.8627 17.449V15.8627H1.58627V17.449H15.8627ZM17.449 11.1039H15.8627V15.8627H17.449V11.1039ZM19.0353 7.93137H17.449V11.1039H19.0353V7.93137ZM20.6216 3.17255H19.0353V7.93137H20.6216V3.17255ZM22.2078 1.58627H20.6216V3.17255H22.2078V1.58627ZM23.7941 0H22.2078V1.58627H23.7941V0ZM25.3804 3.17255V1.58627H23.7941V3.17255H25.3804ZM23.7941 36.4843V38.0706H25.3804V36.4843H23.7941ZM22.2078 34.898V36.4843H23.7941V34.898H22.2078ZM31.7255 41.2431V42.8294H34.898V41.2431H31.7255ZM28.5529 39.6569V41.2431H31.7255V39.6569H28.5529ZM25.3804 38.0706V39.6569H28.5529V38.0706H25.3804ZM36.4843 42.8294H34.898V44.4157H38.0706V38.0706H36.4843V42.8294ZM34.898 38.0706H36.4843V31.7255H34.898V38.0706ZM33.3118 31.7255H34.898V28.5529H33.3118V31.7255ZM34.898 28.5529H36.4843V26.9667H34.898V28.5529ZM36.4843 26.9667H38.0706V25.3804H36.4843V26.9667ZM38.0706 25.3804H39.6569V23.7941H38.0706V25.3804ZM39.6569 23.7941H41.2431V22.2078H39.6569V23.7941ZM41.2431 22.2078H42.8294V20.6216H41.2431V22.2078ZM42.8294 20.6216H44.4157V19.0353H42.8294V20.6216ZM44.4157 17.449V19.0353H46.002V17.449H44.4157ZM44.4157 17.449V15.8627H30.1392V17.449H44.4157ZM28.5529 15.8627H30.1392V11.1039H28.5529V15.8627ZM26.9667 11.1039H28.5529V7.93137H26.9667V11.1039ZM25.3804 7.93137H26.9667V3.17255H25.3804V7.93137Z" fill="#B364D8"/>
<path d="M44.4163 17.4497V19.0359H42.8301V20.6222H41.2438V22.2085H39.6575V23.7948H38.0712V25.381H36.485V26.9673H34.8987V28.5536H33.3124V31.7261H34.8987V38.0712H36.485V42.83H34.8987V41.2438H31.7261V39.6575H28.5536V38.0712H25.381V36.485H23.7948V34.8987H22.2085V36.485H20.6222V38.0712H17.4497V39.6575H14.2771V41.2438H11.1046V42.83H9.51829V38.0712H11.1046V31.7261H12.6908V28.5536H11.1046V26.9673H9.51829V25.381H7.93201V23.7948H6.34574V22.2085H4.75946V20.6222H3.17319V19.0359H1.58691V17.4497H15.8634V15.8634H17.4497V11.1046H19.0359V7.93201H20.6222V3.17319H22.2085V1.58691H23.7948V3.17319H25.381V7.93201H26.9673V11.1046H28.5536V15.8634H30.1399V17.4497H44.4163Z" fill="#B364D8"/>
</svg>
