<svg width="35" height="35" viewBox="0 0 35 35" fill="none" xmlns="http://www.w3.org/2000/svg">
<rect width="3" height="29" transform="matrix(-1 0 0 1 3 3)" fill="#232330"/>
<rect width="3" height="29" transform="matrix(0 -1 -1 0 32 3)" fill="#232330"/>
<rect width="29" height="29" transform="matrix(0 -1 -1 0 32 32)" fill="#232330"/>
<rect width="3" height="29" transform="matrix(0 -1 -1 0 32 35)" fill="#232330"/>
<g clipPath="url(#clip0_1_1592)">
<path fill-rule="evenodd" clip-rule="evenodd" d="M23.6567 11.5071C23.8523 11.4247 24.0664 11.3963 24.2768 11.4248C24.4871 11.4533 24.686 11.5377 24.8526 11.6691C25.0193 11.8005 25.1477 11.9742 25.2245 12.1721C25.3012 12.37 25.3235 12.5849 25.2891 12.7943L23.4936 23.6853C23.3194 24.7358 22.1668 25.3383 21.2033 24.815C20.3974 24.3772 19.2004 23.7027 18.1237 22.9989C17.5854 22.6466 15.9363 21.5185 16.139 20.7157C16.3132 20.0293 19.084 17.4501 20.6673 15.9166C21.2888 15.3142 21.0054 14.9666 20.2715 15.5208C18.4483 16.8967 15.5231 18.9891 14.5557 19.5781C13.7023 20.0974 13.2573 20.1861 12.7253 20.0974C11.7548 19.9359 10.8546 19.6858 10.12 19.381C9.12722 18.9693 9.17551 17.6045 10.1192 17.2071L23.6567 11.5071Z" fill="white"/>
</g>
<rect width="3" height="29" transform="matrix(-1 0 0 1 35 3)" fill="#232330"/>
<defs>
<clipPath id="clip0_1_1592">
<rect width="19" height="19" fill="white" transform="translate(8 8)"/>
</clipPath>
</defs>
</svg>
