<svg width="78" height="48" viewBox="0 0 78 48" fill="none" xmlns="http://www.w3.org/2000/svg">
<path d="M15.9673 9.43676C28.6911 -3.01399 49.3123 -3.01399 62.0328 9.43676L63.5636 10.935C63.7147 11.0814 63.8349 11.2566 63.917 11.4504C63.9991 11.6441 64.0414 11.8523 64.0414 12.0628C64.0414 12.2732 63.9991 12.4814 63.917 12.6752C63.8349 12.8689 63.7147 13.0441 63.5636 13.1905L58.3278 18.3158C58.1746 18.467 57.9679 18.5518 57.7526 18.5518C57.5373 18.5518 57.3306 18.467 57.1773 18.3158L55.0681 16.2553C46.1956 7.568 31.8078 7.568 22.9353 16.2553L20.6798 18.4653C20.5252 18.6152 20.3183 18.699 20.103 18.699C19.8876 18.699 19.6807 18.6152 19.5261 18.4653L14.2903 13.3368C14.1393 13.1907 14.0191 13.0157 13.9371 12.8222C13.855 12.6288 13.8128 12.4208 13.8128 12.2106C13.8128 12.0005 13.855 11.7925 13.9371 11.599C14.0191 11.4056 14.1393 11.2306 14.2903 11.0845L15.9673 9.43676ZM72.8618 20.0415L77.5223 24.6045C77.6735 24.7509 77.7937 24.9261 77.8758 25.1199C77.9579 25.3136 78.0002 25.5218 78.0002 25.7323C78.0002 25.9427 77.9579 26.1509 77.8758 26.3447C77.7937 26.5384 77.6735 26.7136 77.5223 26.86L56.5078 47.4358C56.1995 47.7361 55.7861 47.9042 55.3557 47.9042C54.9253 47.9042 54.5119 47.7361 54.2036 47.4358L39.2926 32.8335C39.2158 32.7569 39.1118 32.7139 39.0033 32.7139C38.8949 32.7139 38.7909 32.7569 38.7141 32.8335L23.7998 47.4358C23.4915 47.7361 23.0781 47.9042 22.6477 47.9042C22.2173 47.9042 21.8039 47.7361 21.4956 47.4358L0.477827 26.86C0.326666 26.7136 0.20647 26.5384 0.124385 26.3447C0.0422997 26.1509 0 25.9427 0 25.7323C0 25.5218 0.0422997 25.3136 0.124385 25.1199C0.20647 24.9261 0.326666 24.7509 0.477827 24.6045L5.13833 20.0415C5.44662 19.7411 5.86003 19.573 6.29045 19.573C6.72088 19.573 7.13428 19.7411 7.44258 20.0415L22.3568 34.6438C22.5193 34.7998 22.7761 34.7998 22.9353 34.6438L37.8496 20.0415C38.1579 19.7411 38.5713 19.573 39.0017 19.573C39.4321 19.573 39.8455 19.7411 40.1538 20.0415L55.0681 34.6438C55.2306 34.7998 55.4841 34.7998 55.6466 34.6438L70.5608 20.0415C70.8686 19.7413 71.2814 19.5733 71.7113 19.5733C72.1412 19.5733 72.5541 19.7413 72.8618 20.0415Z" fill="#3A70FB"/>
</svg>
