<svg width="35" height="35" viewBox="0 0 35 35" fill="none" xmlns="http://www.w3.org/2000/svg">
<rect width="3" height="29" transform="matrix(-1 0 0 1 3 3)" fill="#232330"/>
<rect width="3" height="29" transform="matrix(0 -1 -1 0 32 3)" fill="#232330"/>
<rect width="29" height="29" transform="matrix(0 -1 -1 0 32 32)" fill="#232330"/>
<rect width="3" height="29" transform="matrix(0 -1 -1 0 32 35)" fill="#232330"/>
<path d="M21.8949 10.5938H24.2381L19.119 16.4446L25.1412 24.4062H20.4251L16.7319 19.5775L12.506 24.4062H10.1614L15.6368 18.1481L9.86035 10.5938H14.6947L18.0331 15.0074L21.8935 10.5938H21.8949ZM21.0726 23.0037H22.3709L13.9899 11.9226H12.5966L21.0726 23.0037Z" fill="white"/>
<rect width="3" height="29" transform="matrix(-1 0 0 1 35 3)" fill="#232330"/>
</svg>
